{
    "asset" : {
        "generator" : "Khronos glTF Blender I/O v1.2.75",
        "version" : "2.0"
    },
    "scene" : 0,
    "scenes" : [
        {
            "name" : "Scene",
            "nodes" : [
                0,
                1,
                2,
                3,
                4
            ]
        }
    ],
    "nodes" : [
        {
            "mesh" : 0,
            "name" : "Cube",
            "translation" : [
                0,
                1.1778433322906494,
                1.1038155555725098
            ]
        },
        {
            "mesh" : 1,
            "name" : "Cylinder",
            "scale" : [
                0.153550386428833,
                1.524281620979309,
                0.153550386428833
            ],
            "translation" : [
                -0.9794737696647644,
                1.6971511840820312,
                1.9729251861572266
            ]
        },
        {
            "mesh" : 2,
            "name" : "Cylinder.001",
            "scale" : [
                0.153550386428833,
                1.524281620979309,
                0.153550386428833
            ],
            "translation" : [
                -0.9794737696647644,
                1.6971511840820312,
                1.606687068939209
            ]
        },
        {
            "mesh" : 3,
            "name" : "Cylinder.002",
            "scale" : [
                0.153550386428833,
                1.524281620979309,
                0.153550386428833
            ],
            "translation" : [
                -0.9794737696647644,
                1.6971511840820312,
                1.24066162109375
            ]
        },
        {
            "mesh" : 4,
            "name" : "Cylinder.003",
            "scale" : [
                0.2797427773475647,
                2.0813727378845215,
                0.2797427773475647
            ],
            "translation" : [
                -1.224660038948059,
                2.2717654705047607,
                0.5846598148345947
            ]
        }
    ],
    "materials" : [
        {
            "doubleSided" : true,
            "name" : "Material.001",
            "pbrMetallicRoughness" : {}
        },
        {
            "doubleSided" : true,
            "name" : "Material.002",
            "pbrMetallicRoughness" : {}
        },
        {
            "doubleSided" : true,
            "name" : "Material.003",
            "pbrMetallicRoughness" : {}
        },
        {
            "doubleSided" : true,
            "name" : "Material.004",
            "pbrMetallicRoughness" : {}
        },
        {
            "doubleSided" : true,
            "name" : "Material.005",
            "pbrMetallicRoughness" : {}
        },
        {
            "doubleSided" : true,
            "name" : "Material.006",
            "pbrMetallicRoughness" : {}
        }
    ],
    "meshes" : [
        {
            "name" : "Cube.003",
            "primitives" : [
                {
                    "attributes" : {
                        "POSITION" : 0,
                        "NORMAL" : 1
                    },
                    "indices" : 2,
                    "material" : 0
                },
                {
                    "attributes" : {
                        "POSITION" : 3,
                        "NORMAL" : 4
                    },
                    "indices" : 5,
                    "material" : 1
                },
                {
                    "attributes" : {
                        "POSITION" : 6,
                        "NORMAL" : 7
                    },
                    "indices" : 8,
                    "material" : 2
                },
                {
                    "attributes" : {
                        "POSITION" : 9,
                        "NORMAL" : 10
                    },
                    "indices" : 11,
                    "material" : 3
                }
            ]
        },
        {
            "name" : "Cylinder.001",
            "primitives" : [
                {
                    "attributes" : {
                        "POSITION" : 12,
                        "NORMAL" : 13
                    },
                    "indices" : 14,
                    "material" : 0
                }
            ]
        },
        {
            "name" : "Cylinder.002",
            "primitives" : [
                {
                    "attributes" : {
                        "POSITION" : 15,
                        "NORMAL" : 16
                    },
                    "indices" : 17,
                    "material" : 0
                }
            ]
        },
        {
            "name" : "Cylinder.003",
            "primitives" : [
                {
                    "attributes" : {
                        "POSITION" : 18,
                        "NORMAL" : 19
                    },
                    "indices" : 20,
                    "material" : 0
                }
            ]
        },
        {
            "name" : "Cylinder.004",
            "primitives" : [
                {
                    "attributes" : {
                        "POSITION" : 21,
                        "NORMAL" : 22
                    },
                    "indices" : 23,
                    "material" : 4
                },
                {
                    "attributes" : {
                        "POSITION" : 24,
                        "NORMAL" : 25
                    },
                    "indices" : 26,
                    "material" : 5
                }
            ]
        }
    ],
    "accessors" : [
        {
            "bufferView" : 0,
            "componentType" : 5126,
            "count" : 1368,
            "max" : [
                1.0560611486434937,
                1.8612408638000488,
                1.08146333694458
            ],
            "min" : [
                -1.1130443811416626,
                -1,
                -1.9812023639678955
            ],
            "type" : "VEC3"
        },
        {
            "bufferView" : 1,
            "componentType" : 5126,
            "count" : 1368,
            "type" : "VEC3"
        },
        {
            "bufferView" : 2,
            "componentType" : 5123,
            "count" : 4776,
            "type" : "SCALAR"
        },
        {
            "bufferView" : 3,
            "componentType" : 5126,
            "count" : 1372,
            "max" : [
                1.027834177017212,
                1.44147789478302,
                0.7777777910232544
            ],
            "min" : [
                -0.7142857313156128,
                -0.9741320013999939,
                -1.9581921100616455
            ],
            "type" : "VEC3"
        },
        {
            "bufferView" : 4,
            "componentType" : 5126,
            "count" : 1372,
            "type" : "VEC3"
        },
        {
            "bufferView" : 5,
            "componentType" : 5123,
            "count" : 2676,
            "type" : "SCALAR"
        },
        {
            "bufferView" : 6,
            "componentType" : 5126,
            "count" : 180,
            "max" : [
                0.9897804260253906,
                1.4068069458007812,
                0.7303006052970886
            ],
            "min" : [
                -0.6936353445053101,
                -0.931994616985321,
                -1.931575059890747
            ],
            "type" : "VEC3"
        },
        {
            "bufferView" : 7,
            "componentType" : 5126,
            "count" : 180,
            "type" : "VEC3"
        },
        {
            "bufferView" : 8,
            "componentType" : 5123,
            "count" : 288,
            "type" : "SCALAR"
        },
        {
            "bufferView" : 9,
            "componentType" : 5126,
            "count" : 708,
            "max" : [
                1.1130443811416626,
                1.9805736541748047,
                1.2274489402770996
            ],
            "min" : [
                -1.1130443811416626,
                -0.9741320013999939,
                -1.997049331665039
            ],
            "type" : "VEC3"
        },
        {
            "bufferView" : 10,
            "componentType" : 5126,
            "count" : 708,
            "type" : "VEC3"
        },
        {
            "bufferView" : 11,
            "componentType" : 5123,
            "count" : 1296,
            "type" : "SCALAR"
        },
        {
            "bufferView" : 12,
            "componentType" : 5126,
            "count" : 192,
            "max" : [
                1,
                1,
                1
            ],
            "min" : [
                -1,
                -1,
                -1
            ],
            "type" : "VEC3"
        },
        {
            "bufferView" : 13,
            "componentType" : 5126,
            "count" : 192,
            "type" : "VEC3"
        },
        {
            "bufferView" : 14,
            "componentType" : 5123,
            "count" : 372,
            "type" : "SCALAR"
        },
        {
            "bufferView" : 15,
            "componentType" : 5126,
            "count" : 192,
            "max" : [
                1,
                1.2867109775543213,
                1
            ],
            "min" : [
                -1,
                -1,
                -1
            ],
            "type" : "VEC3"
        },
        {
            "bufferView" : 16,
            "componentType" : 5126,
            "count" : 192,
            "type" : "VEC3"
        },
        {
            "bufferView" : 17,
            "componentType" : 5123,
            "count" : 372,
            "type" : "SCALAR"
        },
        {
            "bufferView" : 18,
            "componentType" : 5126,
            "count" : 192,
            "max" : [
                1,
                1.5734225511550903,
                1
            ],
            "min" : [
                -1,
                -1,
                -1
            ],
            "type" : "VEC3"
        },
        {
            "bufferView" : 19,
            "componentType" : 5126,
            "count" : 192,
            "type" : "VEC3"
        },
        {
            "bufferView" : 20,
            "componentType" : 5123,
            "count" : 372,
            "type" : "SCALAR"
        },
        {
            "bufferView" : 21,
            "componentType" : 5126,
            "count" : 1556,
            "max" : [
                1,
                1.2779290676116943,
                1
            ],
            "min" : [
                -1,
                -1,
                -1
            ],
            "type" : "VEC3"
        },
        {
            "bufferView" : 22,
            "componentType" : 5126,
            "count" : 1556,
            "type" : "VEC3"
        },
        {
            "bufferView" : 23,
            "componentType" : 5123,
            "count" : 2484,
            "type" : "SCALAR"
        },
        {
            "bufferView" : 24,
            "componentType" : 5126,
            "count" : 1280,
            "max" : [
                0.9880404472351074,
                1.261017084121704,
                0.9880404472351074
            ],
            "min" : [
                -0.9880404472351074,
                -0.8743879795074463,
                -0.9880404472351074
            ],
            "type" : "VEC3"
        },
        {
            "bufferView" : 25,
            "componentType" : 5126,
            "count" : 1280,
            "type" : "VEC3"
        },
        {
            "bufferView" : 26,
            "componentType" : 5123,
            "count" : 1920,
            "type" : "SCALAR"
        }
    ],
    "bufferViews" : [
        {
            "buffer" : 0,
            "byteLength" : 16416,
            "byteOffset" : 0
        },
        {
            "buffer" : 0,
            "byteLength" : 16416,
            "byteOffset" : 16416
        },
        {
            "buffer" : 0,
            "byteLength" : 9552,
            "byteOffset" : 32832
        },
        {
            "buffer" : 0,
            "byteLength" : 16464,
            "byteOffset" : 42384
        },
        {
            "buffer" : 0,
            "byteLength" : 16464,
            "byteOffset" : 58848
        },
        {
            "buffer" : 0,
            "byteLength" : 5352,
            "byteOffset" : 75312
        },
        {
            "buffer" : 0,
            "byteLength" : 2160,
            "byteOffset" : 80664
        },
        {
            "buffer" : 0,
            "byteLength" : 2160,
            "byteOffset" : 82824
        },
        {
            "buffer" : 0,
            "byteLength" : 576,
            "byteOffset" : 84984
        },
        {
            "buffer" : 0,
            "byteLength" : 8496,
            "byteOffset" : 85560
        },
        {
            "buffer" : 0,
            "byteLength" : 8496,
            "byteOffset" : 94056
        },
        {
            "buffer" : 0,
            "byteLength" : 2592,
            "byteOffset" : 102552
        },
        {
            "buffer" : 0,
            "byteLength" : 2304,
            "byteOffset" : 105144
        },
        {
            "buffer" : 0,
            "byteLength" : 2304,
            "byteOffset" : 107448
        },
        {
            "buffer" : 0,
            "byteLength" : 744,
            "byteOffset" : 109752
        },
        {
            "buffer" : 0,
            "byteLength" : 2304,
            "byteOffset" : 110496
        },
        {
            "buffer" : 0,
            "byteLength" : 2304,
            "byteOffset" : 112800
        },
        {
            "buffer" : 0,
            "byteLength" : 744,
            "byteOffset" : 115104
        },
        {
            "buffer" : 0,
            "byteLength" : 2304,
            "byteOffset" : 115848
        },
        {
            "buffer" : 0,
            "byteLength" : 2304,
            "byteOffset" : 118152
        },
        {
            "buffer" : 0,
            "byteLength" : 744,
            "byteOffset" : 120456
        },
        {
            "buffer" : 0,
            "byteLength" : 18672,
            "byteOffset" : 121200
        },
        {
            "buffer" : 0,
            "byteLength" : 18672,
            "byteOffset" : 139872
        },
        {
            "buffer" : 0,
            "byteLength" : 4968,
            "byteOffset" : 158544
        },
        {
            "buffer" : 0,
            "byteLength" : 15360,
            "byteOffset" : 163512
        },
        {
            "buffer" : 0,
            "byteLength" : 15360,
            "byteOffset" : 178872
        },
        {
            "buffer" : 0,
            "byteLength" : 3840,
            "byteOffset" : 194232
        }
    ],
    "buffers" : [
        {
            "byteLength" : 198072,
            "uri" : "data:application/octet-stream;base64,"
        }
    ]
}
